<svg xmlns="http://www.w3.org/2000/svg" width="375" viewBox="0 0 375 375" height="375" version="1.0"><defs><clipPath id="a"><path d="M 67.300781 165.800781 L 154.300781 165.800781 L 154.300781 237.050781 L 67.300781 237.050781 Z M 67.300781 165.800781"/></clipPath><clipPath id="b"><path d="M 154.058594 165.800781 L 220.808594 165.800781 L 220.808594 237.050781 L 154.058594 237.050781 Z M 154.058594 165.800781"/></clipPath><clipPath id="c"><path d="M 221 165.800781 L 287.691406 165.800781 L 287.691406 237.050781 L 221 237.050781 Z M 221 165.800781"/></clipPath></defs><path fill="#FFF" d="M-37.5 -37.5H412.5V412.5H-37.5z"/><path fill="#FFF" d="M-37.5 -37.5H412.5V412.5H-37.5z"/><path fill="#D9D9D9" d="M-37.5 -37.5H412.5V412.5H-37.5z"/><g clip-path="url(#a)"><path fill="#FFF" d="M 99.304688 225.34375 L 121.914062 225.34375 L 126.417969 237.039062 L 154.300781 237.039062 L 123.234375 165.808594 L 98.367188 165.808594 L 67.300781 237.039062 L 94.8125 237.039062 Z M 110.617188 195.824219 L 114.125 204.914062 L 107.121094 204.914062 Z M 110.617188 195.824219"/></g><g clip-path="url(#b)"><path fill="#FFF" d="M 154.171875 237.050781 L 180.738281 237.050781 L 180.738281 220.554688 L 188.3125 220.554688 C 208.003906 220.554688 220.734375 209.792969 220.734375 193.175781 C 220.734375 176.5625 208.003906 165.800781 188.3125 165.800781 L 154.171875 165.800781 Z M 186.878906 187.363281 C 189.910156 187.363281 193.960938 187.980469 193.960938 193.175781 C 193.960938 198.371094 189.910156 198.992188 186.878906 198.992188 L 180.738281 198.992188 L 180.738281 187.363281 Z M 186.878906 187.363281"/></g><g clip-path="url(#c)"><path fill="#FFF" d="M 221.054688 237.050781 L 247.625 237.050781 L 247.625 220.554688 L 255.199219 220.554688 C 274.886719 220.554688 287.621094 209.792969 287.621094 193.175781 C 287.621094 176.5625 274.886719 165.800781 255.199219 165.800781 L 221.054688 165.800781 Z M 253.765625 187.363281 C 256.792969 187.363281 260.847656 187.980469 260.847656 193.175781 C 260.847656 198.371094 256.792969 198.992188 253.765625 198.992188 L 247.625 198.992188 L 247.625 187.363281 Z M 253.765625 187.363281"/></g><g fill="#353535"><g><g><path d="M 12.609375 -3.1875 L 5.6875 -3.1875 L 4.390625 0 L -0.328125 0 L 6.90625 -16.375 L 11.46875 -16.375 L 18.71875 0 L 13.890625 0 Z M 11.25 -6.59375 L 9.140625 -11.828125 L 7.046875 -6.59375 Z M 11.25 -6.59375" transform="translate(103.89 159.983)"/></g></g></g><g fill="#353535"><g><g><path d="M 9.1875 0.328125 C 6.757812 0.328125 4.867188 -0.332031 3.515625 -1.65625 C 2.171875 -2.988281 1.5 -4.867188 1.5 -7.296875 L 1.5 -16.375 L 6.125 -16.375 L 6.125 -7.4375 C 6.125 -4.820312 7.160156 -3.515625 9.234375 -3.515625 C 11.296875 -3.515625 12.328125 -4.820312 12.328125 -7.4375 L 12.328125 -16.375 L 16.890625 -16.375 L 16.890625 -7.296875 C 16.890625 -4.867188 16.210938 -2.988281 14.859375 -1.65625 C 13.515625 -0.332031 11.625 0.328125 9.1875 0.328125 Z M 9.1875 0.328125" transform="translate(122.265 159.983)"/></g></g></g><g fill="#353535"><g><g><path d="M 5.125 -12.703125 L 0.09375 -12.703125 L 0.09375 -16.375 L 14.765625 -16.375 L 14.765625 -12.703125 L 9.75 -12.703125 L 9.75 0 L 5.125 0 Z M 5.125 -12.703125" transform="translate(140.64 159.983)"/></g></g></g><g fill="#353535"><g><g><path d="M 9.890625 0.328125 C 8.160156 0.328125 6.601562 -0.0351562 5.21875 -0.765625 C 3.84375 -1.503906 2.757812 -2.519531 1.96875 -3.8125 C 1.1875 -5.101562 0.796875 -6.5625 0.796875 -8.1875 C 0.796875 -9.8125 1.1875 -11.269531 1.96875 -12.5625 C 2.757812 -13.851562 3.84375 -14.863281 5.21875 -15.59375 C 6.601562 -16.332031 8.160156 -16.703125 9.890625 -16.703125 C 11.617188 -16.703125 13.171875 -16.332031 14.546875 -15.59375 C 15.929688 -14.863281 17.019531 -13.851562 17.8125 -12.5625 C 18.601562 -11.269531 19 -9.8125 19 -8.1875 C 19 -6.5625 18.601562 -5.101562 17.8125 -3.8125 C 17.019531 -2.519531 15.929688 -1.503906 14.546875 -0.765625 C 13.171875 -0.0351562 11.617188 0.328125 9.890625 0.328125 Z M 9.890625 -3.515625 C 10.722656 -3.515625 11.472656 -3.707031 12.140625 -4.09375 C 12.804688 -4.476562 13.332031 -5.023438 13.71875 -5.734375 C 14.113281 -6.453125 14.3125 -7.269531 14.3125 -8.1875 C 14.3125 -9.101562 14.113281 -9.914062 13.71875 -10.625 C 13.332031 -11.332031 12.804688 -11.878906 12.140625 -12.265625 C 11.472656 -12.660156 10.722656 -12.859375 9.890625 -12.859375 C 9.066406 -12.859375 8.316406 -12.660156 7.640625 -12.265625 C 6.972656 -11.878906 6.441406 -11.332031 6.046875 -10.625 C 5.660156 -9.914062 5.46875 -9.101562 5.46875 -8.1875 C 5.46875 -7.269531 5.660156 -6.453125 6.046875 -5.734375 C 6.441406 -5.023438 6.972656 -4.476562 7.640625 -4.09375 C 8.316406 -3.707031 9.066406 -3.515625 9.890625 -3.515625 Z M 10.734375 -21.265625 L 15.171875 -21.265625 L 10.78125 -17.703125 L 7.59375 -17.703125 Z M 10.734375 -21.265625" transform="translate(155.486 159.983)"/></g></g></g><g fill="#353535"><g><g><path d="M 17.21875 -16.375 L 17.21875 0 L 13.40625 0 L 6.171875 -8.71875 L 6.171875 0 L 1.640625 0 L 1.640625 -16.375 L 5.453125 -16.375 L 12.671875 -7.65625 L 12.671875 -16.375 Z M 17.21875 -16.375" transform="translate(175.265 159.983)"/></g></g></g><g fill="#353535"><g><g><path d="M 9.890625 0.328125 C 8.160156 0.328125 6.601562 -0.0351562 5.21875 -0.765625 C 3.84375 -1.503906 2.757812 -2.519531 1.96875 -3.8125 C 1.1875 -5.101562 0.796875 -6.5625 0.796875 -8.1875 C 0.796875 -9.8125 1.1875 -11.269531 1.96875 -12.5625 C 2.757812 -13.851562 3.84375 -14.863281 5.21875 -15.59375 C 6.601562 -16.332031 8.160156 -16.703125 9.890625 -16.703125 C 11.617188 -16.703125 13.171875 -16.332031 14.546875 -15.59375 C 15.929688 -14.863281 17.019531 -13.851562 17.8125 -12.5625 C 18.601562 -11.269531 19 -9.8125 19 -8.1875 C 19 -6.5625 18.601562 -5.101562 17.8125 -3.8125 C 17.019531 -2.519531 15.929688 -1.503906 14.546875 -0.765625 C 13.171875 -0.0351562 11.617188 0.328125 9.890625 0.328125 Z M 9.890625 -3.515625 C 10.722656 -3.515625 11.472656 -3.707031 12.140625 -4.09375 C 12.804688 -4.476562 13.332031 -5.023438 13.71875 -5.734375 C 14.113281 -6.453125 14.3125 -7.269531 14.3125 -8.1875 C 14.3125 -9.101562 14.113281 -9.914062 13.71875 -10.625 C 13.332031 -11.332031 12.804688 -11.878906 12.140625 -12.265625 C 11.472656 -12.660156 10.722656 -12.859375 9.890625 -12.859375 C 9.066406 -12.859375 8.316406 -12.660156 7.640625 -12.265625 C 6.972656 -11.878906 6.441406 -11.332031 6.046875 -10.625 C 5.660156 -9.914062 5.46875 -9.101562 5.46875 -8.1875 C 5.46875 -7.269531 5.660156 -6.453125 6.046875 -5.734375 C 6.441406 -5.023438 6.972656 -4.476562 7.640625 -4.09375 C 8.316406 -3.707031 9.066406 -3.515625 9.890625 -3.515625 Z M 9.890625 -3.515625" transform="translate(194.108 159.983)"/></g></g></g><g fill="#353535"><g><g><path d="M 16.421875 0 L 16.375 -8.671875 L 12.15625 -1.609375 L 10.109375 -1.609375 L 5.921875 -8.4375 L 5.921875 0 L 1.640625 0 L 1.640625 -16.375 L 5.453125 -16.375 L 11.203125 -6.921875 L 16.8125 -16.375 L 20.625 -16.375 L 20.671875 0 Z M 16.421875 0" transform="translate(213.887 159.983)"/></g></g></g><g fill="#353535"><g><g><path d="M 9.890625 0.328125 C 8.160156 0.328125 6.601562 -0.0351562 5.21875 -0.765625 C 3.84375 -1.503906 2.757812 -2.519531 1.96875 -3.8125 C 1.1875 -5.101562 0.796875 -6.5625 0.796875 -8.1875 C 0.796875 -9.8125 1.1875 -11.269531 1.96875 -12.5625 C 2.757812 -13.851562 3.84375 -14.863281 5.21875 -15.59375 C 6.601562 -16.332031 8.160156 -16.703125 9.890625 -16.703125 C 11.617188 -16.703125 13.171875 -16.332031 14.546875 -15.59375 C 15.929688 -14.863281 17.019531 -13.851562 17.8125 -12.5625 C 18.601562 -11.269531 19 -9.8125 19 -8.1875 C 19 -6.5625 18.601562 -5.101562 17.8125 -3.8125 C 17.019531 -2.519531 15.929688 -1.503906 14.546875 -0.765625 C 13.171875 -0.0351562 11.617188 0.328125 9.890625 0.328125 Z M 9.890625 -3.515625 C 10.722656 -3.515625 11.472656 -3.707031 12.140625 -4.09375 C 12.804688 -4.476562 13.332031 -5.023438 13.71875 -5.734375 C 14.113281 -6.453125 14.3125 -7.269531 14.3125 -8.1875 C 14.3125 -9.101562 14.113281 -9.914062 13.71875 -10.625 C 13.332031 -11.332031 12.804688 -11.878906 12.140625 -12.265625 C 11.472656 -12.660156 10.722656 -12.859375 9.890625 -12.859375 C 9.066406 -12.859375 8.316406 -12.660156 7.640625 -12.265625 C 6.972656 -11.878906 6.441406 -11.332031 6.046875 -10.625 C 5.660156 -9.914062 5.46875 -9.101562 5.46875 -8.1875 C 5.46875 -7.269531 5.660156 -6.453125 6.046875 -5.734375 C 6.441406 -5.023438 6.972656 -4.476562 7.640625 -4.09375 C 8.316406 -3.707031 9.066406 -3.515625 9.890625 -3.515625 Z M 9.890625 -3.515625" transform="translate(236.19 159.983)"/></g></g></g><g fill="#353535"><g><g><path d="M 7.390625 0.328125 C 6.066406 0.328125 4.78125 0.164062 3.53125 -0.15625 C 2.28125 -0.488281 1.265625 -0.925781 0.484375 -1.46875 L 2.015625 -4.890625 C 2.742188 -4.398438 3.59375 -4.007812 4.5625 -3.71875 C 5.53125 -3.425781 6.484375 -3.28125 7.421875 -3.28125 C 9.191406 -3.28125 10.078125 -3.722656 10.078125 -4.609375 C 10.078125 -5.078125 9.820312 -5.421875 9.3125 -5.640625 C 8.8125 -5.867188 8 -6.109375 6.875 -6.359375 C 5.644531 -6.628906 4.613281 -6.914062 3.78125 -7.21875 C 2.957031 -7.519531 2.25 -8.003906 1.65625 -8.671875 C 1.0625 -9.347656 0.765625 -10.253906 0.765625 -11.390625 C 0.765625 -12.390625 1.035156 -13.289062 1.578125 -14.09375 C 2.128906 -14.894531 2.945312 -15.53125 4.03125 -16 C 5.113281 -16.46875 6.441406 -16.703125 8.015625 -16.703125 C 9.097656 -16.703125 10.160156 -16.578125 11.203125 -16.328125 C 12.242188 -16.085938 13.164062 -15.738281 13.96875 -15.28125 L 12.53125 -11.828125 C 10.976562 -12.671875 9.46875 -13.09375 8 -13.09375 C 7.082031 -13.09375 6.410156 -12.957031 5.984375 -12.6875 C 5.566406 -12.414062 5.359375 -12.0625 5.359375 -11.625 C 5.359375 -11.1875 5.609375 -10.859375 6.109375 -10.640625 C 6.609375 -10.421875 7.410156 -10.195312 8.515625 -9.96875 C 9.765625 -9.695312 10.796875 -9.410156 11.609375 -9.109375 C 12.429688 -8.804688 13.140625 -8.320312 13.734375 -7.65625 C 14.335938 -7 14.640625 -6.097656 14.640625 -4.953125 C 14.640625 -3.972656 14.363281 -3.082031 13.8125 -2.28125 C 13.269531 -1.488281 12.453125 -0.851562 11.359375 -0.375 C 10.273438 0.09375 8.953125 0.328125 7.390625 0.328125 Z M 7.390625 0.328125" transform="translate(255.969 159.983)"/></g></g></g></svg>